<?xml version="1.0" standalone="no"?>
<!DOCTYPE svg PUBLIC "-//W3C//DTD SVG 20010904//EN"
 "http://www.w3.org/TR/2001/REC-SVG-20010904/DTD/svg10.dtd">
<svg version="1.0" xmlns="http://www.w3.org/2000/svg"
 width="1025.000000pt" height="661.000000pt" viewBox="0 0 1025.000000 661.000000"
 preserveAspectRatio="xMidYMid meet">

<g transform="translate(0.000000,661.000000) scale(0.100000,-0.100000)"
fill="#000000" stroke="none">
<path d="M5187 6596 c-86 -24 -147 -105 -147 -196 0 -54 17 -106 44 -132 15
-16 13 -17 -31 -23 -351 -48 -638 -231 -837 -534 -80 -121 -109 -179 -146
-289 -37 -112 -49 -202 -60 -442 -15 -314 -50 -509 -131 -715 -74 -191 -195
-352 -390 -521 -111 -97 -188 -197 -211 -274 -7 -25 -12 -76 -12 -115 3 -138
70 -250 202 -336 l76 -50 20 42 c26 55 124 159 202 215 253 181 827 304 1420
305 509 0 972 -69 1304 -196 118 -45 163 -68 241 -126 80 -59 136 -119 174
-185 16 -27 30 -51 31 -52 7 -10 115 59 160 103 64 63 100 133 116 225 27 158
-36 285 -221 441 -261 221 -386 429 -465 774 -33 146 -44 240 -55 485 -13 275
-41 420 -80 420 -41 0 -150 41 -207 78 -165 109 -253 264 -259 461 -2 51 -7
97 -12 102 -19 18 -143 83 -211 110 -40 16 -124 39 -185 51 -62 12 -113 22
-115 23 -1 2 9 24 23 50 18 34 25 63 25 101 0 67 -10 93 -55 143 -52 58 -128
78 -208 57z m163 -648 c95 -31 186 -82 272 -152 66 -55 173 -174 164 -183 -2
-2 -22 7 -43 20 -21 13 -72 37 -113 52 -64 23 -91 28 -180 28 -126 1 -198 -17
-325 -79 -196 -96 -331 -249 -390 -439 -28 -91 -69 -336 -84 -500 -6 -60 -15
-162 -21 -227 -12 -137 -47 -314 -89 -458 -17 -57 -30 -105 -28 -106 2 -2 52
3 113 10 60 8 141 17 179 20 39 4 120 11 180 16 234 22 654 8 950 -31 123 -16
336 -67 482 -115 356 -117 522 -248 564 -442 11 -55 6 -145 -11 -172 -7 -12
-10 -11 -15 5 -22 68 -119 170 -233 247 -184 124 -464 213 -866 274 -533 81
-1249 41 -1713 -96 -196 -58 -403 -170 -510 -277 -51 -51 -65 -73 -82 -125
l-19 -63 -18 40 c-13 28 -18 66 -18 125 -1 71 3 93 24 134 29 56 120 144 235
224 241 168 388 421 466 802 16 80 23 163 29 355 8 252 20 351 60 493 80 285
352 545 659 629 113 31 267 27 381 -9z"/>
<path d="M6342 6435 c-124 -35 -239 -136 -300 -262 -37 -77 -37 -79 -37 -203
0 -124 0 -126 38 -204 88 -185 265 -287 474 -274 251 16 443 224 443 477 0
194 -102 355 -276 438 -71 34 -85 37 -183 40 -72 2 -123 -2 -159 -12z m176
-457 l-3 -243 -37 -3 -38 -3 0 190 0 191 -30 0 c-25 0 -30 4 -30 23 0 17 9 26
34 35 19 7 38 22 41 32 4 14 15 20 36 20 l29 0 -2 -242z"/>
<path d="M5407 3254 c-3 -3 18 -52 48 -108 30 -58 56 -124 60 -150 19 -127
-74 -226 -231 -245 -119 -14 -230 42 -297 148 -33 54 -29 140 11 222 17 35 39
76 48 91 45 68 -36 35 -122 -49 -30 -29 -68 -81 -86 -116 -30 -57 -33 -69 -33
-157 0 -87 3 -101 32 -161 74 -149 232 -239 421 -239 140 0 249 47 342 147 91
97 120 212 84 334 -29 99 -98 185 -198 251 -61 39 -68 42 -79 32z"/>
<path d="M4855 2067 c-61 -34 -89 -93 -89 -186 0 -100 29 -157 136 -265 87
-87 117 -139 118 -199 0 -51 -39 -92 -78 -82 -48 12 -62 33 -62 92 l0 53 -66
0 -67 0 6 -69 c9 -109 47 -162 134 -187 148 -43 263 42 263 196 0 107 -20 148
-125 259 -108 114 -125 142 -125 209 0 55 20 82 61 82 41 0 61 -22 66 -73 l6
-47 60 0 60 0 -5 64 c-10 120 -71 176 -193 176 -44 0 -71 -6 -100 -23z"/>
<path d="M4347 1908 c-34 -210 -95 -589 -103 -640 l-6 -38 60 0 61 0 12 75 12
75 83 0 83 0 12 -75 12 -75 67 0 c60 0 68 2 64 18 -4 17 -27 158 -89 552 -19
124 -38 237 -41 253 l-6 27 -97 0 -97 0 -27 -172z m147 -166 c14 -94 29 -189
32 -212 l7 -40 -61 0 c-34 0 -63 4 -66 8 -3 5 8 98 24 208 17 109 30 203 30
208 0 5 2 7 5 5 2 -3 15 -82 29 -177z"/>
<path d="M5230 1655 l0 -425 65 0 65 0 0 175 0 175 41 0 c46 0 73 -12 85 -37
5 -10 11 -83 14 -163 l5 -145 65 -3 65 -3 -3 148 c-3 163 -16 219 -59 253
l-25 20 30 28 c40 38 55 97 50 203 -5 105 -25 144 -88 177 -39 19 -59 22 -177
22 l-133 0 0 -425z m244 289 c23 -22 29 -55 24 -135 -5 -86 -24 -109 -94 -109
l-44 0 0 130 0 130 49 0 c32 0 55 -6 65 -16z"/>
<path d="M5812 1953 c-29 -171 -67 -408 -92 -572 -11 -74 -23 -138 -26 -143
-3 -4 24 -8 59 -8 l65 0 6 48 c4 26 9 60 12 75 l6 28 81 -3 81 -3 7 -35 c4
-19 10 -52 13 -72 l7 -38 64 0 c45 0 65 4 65 13 0 12 -99 637 -122 770 l-11
67 -97 0 -97 0 -21 -127z m147 -256 c16 -105 26 -195 24 -199 -2 -5 -31 -8
-64 -8 -32 0 -59 3 -59 8 0 19 53 399 58 412 7 21 9 14 41 -213z"/>
<path d="M309 937 c-68 -45 -69 -53 -69 -431 0 -325 -1 -342 -21 -383 -24 -49
-67 -86 -125 -107 -34 -13 390 -15 3297 -15 l3336 -1 34 23 c68 45 69 50 69
457 0 407 -1 412 -69 457 l-34 23 -3192 0 -3192 0 -34 -23z m1117 -192 c132
-39 209 -183 170 -317 -20 -70 -67 -130 -130 -165 -44 -24 -62 -28 -126 -27
-91 0 -139 22 -197 88 -86 98 -86 244 0 342 76 86 170 113 283 79z m2319 -16
c63 -31 92 -64 75 -84 -17 -20 -27 -19 -53 6 -78 74 -213 77 -293 7 -50 -44
-74 -96 -74 -163 0 -121 97 -215 221 -215 38 0 127 38 148 63 17 21 35 22 50
3 10 -11 6 -20 -16 -41 -121 -114 -332 -91 -418 45 -57 90 -57 205 -2 287 36
53 98 101 148 114 56 14 164 3 214 -22z m2094 -6 c174 -108 169 -360 -9 -457
-100 -54 -218 -41 -304 35 -110 97 -115 268 -12 377 58 62 115 83 210 77 53
-3 80 -11 115 -32z m-5203 -175 l154 -178 2 187 3 188 23 0 23 0 0 -247 c0
-137 -4 -247 -8 -246 -4 1 -80 85 -168 186 l-160 183 -3 -191 -2 -191 -23 3
-22 3 -3 254 c-2 234 -1 253 14 240 9 -7 86 -94 170 -191z m1434 177 c0 -24
-3 -25 -55 -25 l-55 0 -2 -227 c-3 -228 -3 -228 -25 -231 l-23 -3 0 230 0 231
-55 0 c-52 0 -55 1 -55 25 l0 25 135 0 135 0 0 -25z m258 -227 c-3 -245 -4
-253 -23 -253 -19 0 -20 8 -23 253 l-2 252 25 0 25 0 -2 -252z m502 227 l0
-25 -100 0 -100 0 0 -80 0 -80 100 0 100 0 0 -25 0 -25 -100 0 -100 0 0 -126
c0 -124 0 -125 -22 -122 l-23 3 -3 253 -2 252 125 0 125 0 0 -25z m268 -227
c-3 -245 -4 -253 -23 -253 -19 0 -20 8 -23 253 l-2 252 25 0 25 0 -2 -252z
m1286 4 c58 -128 107 -238 109 -245 1 -6 -8 -13 -21 -15 -20 -3 -27 7 -59 77
l-36 81 -114 0 -114 0 -34 -75 c-34 -75 -51 -92 -80 -82 -14 6 -16 3 166 386
34 72 63 121 68 115 5 -5 56 -114 115 -242z m566 223 c0 -24 -3 -25 -55 -25
l-55 0 -2 -227 c-3 -227 -3 -228 -25 -231 l-23 -3 -2 228 -3 228 -51 3 c-41 2
-53 7 -57 22 -3 10 -2 21 1 24 3 3 65 6 139 6 l133 0 0 -25z m258 -227 c-3
-245 -4 -253 -23 -253 -19 0 -20 8 -23 253 l-2 252 25 0 25 0 -2 -252z m1177
59 l160 -186 3 190 2 189 25 0 25 0 0 -257 -1 -258 -35 40 c-19 22 -95 108
-167 192 l-132 152 -5 -187 c-5 -185 -5 -187 -27 -190 l-23 -3 0 256 c0 141 3
254 8 252 4 -3 79 -88 167 -190z"/>
<path d="M1277 700 c-134 -40 -187 -223 -100 -339 29 -38 113 -81 159 -81 117
0 214 97 214 213 0 67 -18 112 -62 154 -58 56 -135 76 -211 53z"/>
<path d="M5637 700 c-99 -30 -166 -154 -138 -256 31 -117 146 -185 260 -154
50 13 119 72 138 117 16 39 17 131 2 170 -35 95 -160 153 -262 123z"/>
<path d="M4228 565 c-61 -121 -62 -115 31 -115 44 0 82 3 84 8 3 4 -14 45 -38
92 l-42 84 -35 -69z"/>
<path d="M7274 746 c-45 -20 -64 -53 -64 -109 0 -46 3 -51 52 -95 137 -125
148 -137 148 -175 0 -27 -7 -41 -31 -61 -46 -39 -84 -35 -130 14 -24 26 -44
38 -53 34 -21 -8 -20 -20 6 -56 28 -41 99 -72 144 -64 43 9 93 50 111 93 27
65 -7 128 -112 208 -77 60 -85 70 -85 114 0 64 89 81 136 27 18 -21 25 -23 39
-13 21 16 12 38 -27 67 -38 28 -93 35 -134 16z"/>
<path d="M8314 746 c-42 -19 -64 -53 -64 -98 0 -55 16 -81 86 -138 88 -71 114
-105 114 -145 0 -87 -108 -112 -167 -39 -20 25 -33 33 -46 29 -9 -4 -17 -13
-17 -20 0 -25 65 -83 107 -95 78 -24 160 26 178 108 11 53 -24 111 -108 178
-88 71 -96 81 -97 120 0 66 78 87 130 36 21 -21 33 -26 44 -20 25 14 19 35
-19 63 -41 32 -98 40 -141 21z"/>
<path d="M7680 745 c0 -3 36 -64 80 -134 l80 -129 0 -116 0 -116 25 0 25 0 0
121 0 121 75 125 c41 68 75 126 75 129 0 3 -12 4 -27 2 -22 -2 -37 -20 -84
-98 -31 -52 -61 -96 -66 -97 -4 -2 -35 41 -69 94 -49 80 -66 99 -87 101 -15 2
-27 1 -27 -3z"/>
<path d="M8710 725 c0 -24 3 -25 55 -25 l55 0 0 -225 0 -225 25 0 25 0 0 225
0 225 55 0 c52 0 55 1 55 25 l0 25 -135 0 -135 0 0 -25z"/>
<path d="M9190 500 l0 -250 140 0 c133 0 140 1 140 20 0 18 -8 20 -117 22
l-118 3 -3 98 -3 97 121 0 120 0 0 25 0 25 -120 0 -120 0 0 80 0 80 120 0 120
0 0 25 0 25 -140 0 -140 0 0 -250z"/>
<path d="M9747 730 c-6 -25 -67 -452 -67 -470 0 -6 9 -10 20 -10 24 0 25 3 50
194 11 82 22 152 25 154 2 3 43 -75 89 -172 47 -97 89 -176 94 -176 8 0 85
149 153 298 13 28 26 52 30 52 3 0 16 -79 29 -175 22 -171 24 -175 46 -175 13
0 24 1 24 3 0 2 -11 79 -24 172 -14 94 -28 198 -32 231 -6 59 -18 94 -27 84
-5 -5 -127 -259 -170 -352 -12 -27 -24 -48 -28 -48 -3 0 -51 93 -106 208 -82
170 -101 203 -106 182z"/>
</g>
</svg>
