<?xml version="1.0" standalone="no"?>
<!DOCTYPE svg PUBLIC "-//W3C//DTD SVG 20010904//EN"
 "http://www.w3.org/TR/2001/REC-SVG-20010904/DTD/svg10.dtd">
<svg version="1.0" xmlns="http://www.w3.org/2000/svg"
 width="1025.000000pt" height="1025.000000pt" viewBox="0 0 1025.000000 1025.000000"
 preserveAspectRatio="xMidYMid meet">

<g transform="translate(0.000000,1025.000000) scale(0.100000,-0.100000)"
fill="#000000" stroke="none">
<path d="M5040 10164 c-46 -9 -145 -47 -185 -72 -254 -156 -315 -517 -127
-750 19 -24 33 -45 31 -46 -2 -2 -49 -9 -104 -15 -371 -44 -726 -160 -1040
-341 -403 -232 -722 -530 -979 -915 -268 -401 -382 -655 -466 -1040 -38 -173
-59 -406 -70 -775 -10 -329 -11 -357 -29 -535 -40 -398 -140 -843 -271 -1200
-68 -185 -206 -452 -317 -612 -164 -238 -449 -542 -678 -725 -141 -112 -224
-197 -322 -328 -164 -221 -221 -389 -210 -621 17 -373 210 -656 594 -873 45
-25 86 -46 90 -46 4 0 19 26 33 58 80 186 299 419 557 593 124 84 318 179 518
255 185 69 563 183 750 224 55 12 116 26 135 30 244 55 540 101 885 139 358
40 508 52 682 56 87 1 280 6 428 10 304 8 726 -9 1085 -45 52 -5 147 -14 210
-20 305 -30 666 -79 820 -111 40 -8 104 -21 249 -50 56 -11 287 -68 326 -79
17 -6 77 -24 135 -41 521 -153 808 -286 1065 -492 77 -62 242 -226 289 -287
49 -63 106 -159 126 -210 7 -19 16 -39 20 -43 7 -8 119 52 215 116 258 173
401 374 460 646 38 173 13 401 -59 555 -84 180 -235 367 -412 511 -348 283
-625 589 -806 890 -203 338 -366 804 -447 1282 -6 32 -15 85 -21 118 -34 193
-49 366 -59 720 -15 492 -47 782 -110 1015 -6 19 -15 55 -22 80 -15 57 -26 70
-55 70 -13 0 -45 5 -71 11 -283 68 -486 175 -677 359 -115 111 -203 228 -271
365 -110 220 -148 395 -144 654 l3 164 -29 23 c-66 50 -293 171 -445 236 -223
96 -495 165 -792 203 -27 4 -48 9 -48 12 0 3 18 25 39 49 96 109 138 273 108
418 -23 114 -59 179 -141 261 -65 65 -111 95 -210 134 -30 12 -194 23 -236 15z
m181 -1568 c112 -24 256 -69 329 -102 278 -126 488 -276 699 -499 85 -90 221
-260 221 -276 0 -5 -32 12 -70 37 -343 221 -745 289 -1150 192 -281 -66 -592
-222 -811 -404 -144 -120 -347 -356 -419 -487 -95 -173 -126 -247 -164 -387
-53 -198 -113 -540 -160 -910 -22 -172 -29 -245 -57 -595 -35 -457 -78 -726
-180 -1130 -57 -223 -74 -285 -122 -425 -14 -41 -24 -76 -23 -78 2 -1 48 4
102 12 54 8 176 24 269 36 94 11 189 23 212 26 45 5 182 18 378 34 1076 88
2204 32 3050 -151 127 -27 393 -98 545 -145 667 -206 1150 -475 1346 -750 58
-82 126 -228 154 -334 31 -115 31 -290 1 -402 -12 -43 -21 -80 -21 -83 0 -3
-4 -5 -9 -5 -4 0 -16 26 -25 58 -35 124 -236 348 -476 529 -153 115 -426 265
-625 342 -11 5 -31 13 -45 19 -27 13 -254 87 -365 120 -85 26 -371 99 -440
114 -27 5 -66 14 -85 18 -222 50 -587 112 -880 150 -505 64 -1097 85 -1690 60
-624 -27 -1009 -63 -1469 -141 -167 -28 -221 -38 -318 -60 -24 -5 -63 -13 -88
-19 -295 -66 -588 -153 -775 -233 -235 -99 -558 -281 -729 -410 -97 -73 -225
-203 -275 -277 -57 -87 -81 -141 -102 -233 -10 -42 -21 -77 -25 -77 -9 0 -57
118 -75 185 -21 76 -28 229 -15 314 17 106 56 216 103 289 68 105 315 323 558
491 223 155 353 282 539 524 118 154 224 340 319 562 106 249 161 421 242 770
12 52 56 324 70 438 6 48 15 289 20 535 5 246 12 470 15 497 65 566 174 926
372 1225 365 551 956 960 1518 1049 115 18 132 19 325 16 153 -3 205 -8 301
-29z"/>
<path d="M8045 9794 c-108 -14 -181 -30 -257 -55 -391 -129 -678 -435 -785
-839 -44 -166 -43 -412 2 -585 73 -278 248 -525 483 -683 205 -137 419 -201
668 -202 303 0 584 111 805 318 182 171 300 382 355 637 37 168 21 420 -38
598 -131 403 -482 713 -897 792 -77 15 -281 27 -336 19z m193 -1176 l-3 -593
-92 -3 -93 -3 0 455 0 455 -72 3 -73 3 0 65 0 65 50 8 c60 10 108 45 135 98
l20 39 65 0 65 0 -2 -592z"/>
<path d="M5520 1950 c-17 -11 -6 -39 75 -175 143 -243 195 -375 201 -514 2
-47 -1 -106 -7 -131 -43 -190 -240 -353 -492 -407 -101 -21 -289 -13 -377 17
-203 68 -359 202 -444 380 -30 63 -31 69 -30 200 0 122 3 142 28 209 33 86 81
182 154 302 78 129 69 145 -47 84 -181 -95 -364 -287 -461 -483 -63 -127 -83
-215 -82 -367 0 -208 37 -329 151 -505 151 -232 406 -400 696 -459 28 -5 75
-15 105 -21 60 -13 259 -8 352 8 507 89 863 444 894 890 9 137 -13 258 -71
397 -25 60 -136 222 -199 292 -96 106 -273 236 -374 276 -49 20 -52 20 -72 7z"/>
</g>
</svg>
